# xmcd CD database file
#
# Track frame offsets:
#	150
#	21621
#	39297
#	63747
#	89360
#	104974
#	124525
#	152123
#	168494
#	190944
#	211588
#
# Disc length: 3200 seconds
#
# Revision: 0
# Processed by: cddbd v1.5.2PL0 Copyright (c) Steve Scherf et al.
# Submitted via: CDex 1.51
#
DISCID=990c7e0b
DTITLE=Lina Nyberg - Tellus
DYEAR=2006
DGENRE=Jazz
TTITLE0=Itaparica
TTITLE1=Vancouver
TTITLE2=Landala
TTITLE3=San saba
TTITLE4=Pincio
TTITLE5=Yokohama
TTITLE6=Salwa
TTITLE7=Ponta Delganda
TTITLE8=Beijing
TTITLE9=Berlin
TTITLE10=Surabaja Johnny
EXTD=YEAR: 2006
EXTT0=
EXTT1=
EXTT2=
EXTT3=
EXTT4=
EXTT5=
EXTT6=
EXTT7=
EXTT8=
EXTT9=
EXTT10=
PLAYORDER=
